<svg id="icons" xmlns="http://www.w3.org/2000/svg" viewBox="0 0 64 64"><title>vintage-radio</title><g id="vintage-radio"><polyline points="5 51 5 56 9 56 11 51" fill="#73635c"/><polyline points="53 51 55 56 59 56 59 51" fill="#73635c"/><rect x="2" y="8" width="60" height="44" fill="#8c7970"/><rect x="11" y="12" width="42" height="21" fill="#dbd0c8"/><rect x="12" y="14.5" width="40" height="16" fill="#bdb2aa"/><rect x="6" y="12" width="5" height="21" fill="#ddd2ca"/><rect x="53" y="12" width="5" height="21" fill="#ddd2ca"/><rect x="6" y="33" width="52" height="3" fill="#bdb2aa"/><rect x="18" y="36" width="28" height="12" fill="#dbd0c8"/><rect x="19.5" y="37.5" width="25" height="9" fill="#bdb2aa"/><rect x="6" y="36" width="12" height="12" fill="#dbd0c8"/><rect x="7.5" y="37.5" width="9" height="9" fill="#bdb2aa"/><rect x="46" y="36" width="12" height="12" fill="#dbd0c8"/><rect x="47.5" y="37.5" width="9" height="9" fill="#bdb2aa"/><path d="M62,52H2V10A2,2,0,0,1,4,8H60a2,2,0,0,1,2,2Z" fill="none" stroke="#544f4b" stroke-miterlimit="10" stroke-width="2"/><line x1="6" y1="36" x2="58" y2="36" fill="none" stroke="#544f4b" stroke-miterlimit="10" stroke-width="2"/><circle cx="12" cy="42" r="3" fill="#dd7a7a"/><circle cx="12" cy="42" r="3" fill="none" stroke="#544f4b" stroke-miterlimit="10" stroke-width="2"/><circle cx="52" cy="42" r="3" fill="#dbc07b"/><circle cx="52" cy="42" r="3" fill="none" stroke="#544f4b" stroke-miterlimit="10" stroke-width="2"/><line x1="11" y1="12" x2="11" y2="33" fill="none" stroke="#544f4b" stroke-miterlimit="10" stroke-width="2"/><line x1="14" y1="12" x2="14" y2="33" fill="none" stroke="#8c7970" stroke-miterlimit="10" stroke-width="2"/><line x1="17" y1="12" x2="17" y2="33" fill="none" stroke="#8c7970" stroke-miterlimit="10" stroke-width="2"/><line x1="20" y1="12" x2="20" y2="33" fill="none" stroke="#8c7970" stroke-miterlimit="10" stroke-width="2"/><line x1="26" y1="12" x2="26" y2="33" fill="none" stroke="#8c7970" stroke-miterlimit="10" stroke-width="2"/><line x1="23" y1="12" x2="23" y2="33" fill="none" stroke="#8c7970" stroke-miterlimit="10" stroke-width="2"/><line x1="29" y1="12" x2="29" y2="33" fill="none" stroke="#8c7970" stroke-miterlimit="10" stroke-width="2"/><line x1="32" y1="12" x2="32" y2="33" fill="none" stroke="#8c7970" stroke-miterlimit="10" stroke-width="2"/><line x1="35" y1="12" x2="35" y2="33" fill="none" stroke="#8c7970" stroke-miterlimit="10" stroke-width="2"/><line x1="38" y1="12" x2="38" y2="33" fill="none" stroke="#8c7970" stroke-miterlimit="10" stroke-width="2"/><line x1="41" y1="12" x2="41" y2="33" fill="none" stroke="#8c7970" stroke-miterlimit="10" stroke-width="2"/><line x1="44" y1="12" x2="44" y2="33" fill="none" stroke="#8c7970" stroke-miterlimit="10" stroke-width="2"/><line x1="47" y1="12" x2="47" y2="33" fill="none" stroke="#8c7970" stroke-miterlimit="10" stroke-width="2"/><line x1="50" y1="12" x2="50" y2="33" fill="none" stroke="#8c7970" stroke-miterlimit="10" stroke-width="2"/><line x1="53" y1="12" x2="53" y2="33" fill="none" stroke="#544f4b" stroke-miterlimit="10" stroke-width="2"/><line x1="31" y1="39" x2="33" y2="39" fill="none" stroke="#544f4b" stroke-miterlimit="10" stroke-width="2"/><line x1="35" y1="39" x2="37" y2="39" fill="none" stroke="#544f4b" stroke-miterlimit="10" stroke-width="2"/><line x1="39" y1="39" x2="41" y2="39" fill="none" stroke="#544f4b" stroke-miterlimit="10" stroke-width="2"/><line x1="29" y1="39" x2="27" y2="39" fill="none" stroke="#544f4b" stroke-miterlimit="10" stroke-width="2"/><line x1="25" y1="39" x2="23" y2="39" fill="none" stroke="#544f4b" stroke-miterlimit="10" stroke-width="2"/><line x1="25" y1="41" x2="27" y2="41" fill="none" stroke="#544f4b" stroke-miterlimit="10" stroke-width="2"/><line x1="29" y1="41" x2="31" y2="41" fill="none" stroke="#544f4b" stroke-miterlimit="10" stroke-width="2"/><line x1="33" y1="41" x2="35" y2="41" fill="none" stroke="#544f4b" stroke-miterlimit="10" stroke-width="2"/><line x1="37" y1="41" x2="39" y2="41" fill="none" stroke="#544f4b" stroke-miterlimit="10" stroke-width="2"/><line x1="23" y1="43" x2="25" y2="43" fill="none" stroke="#544f4b" stroke-miterlimit="10" stroke-width="2"/><line x1="27" y1="43" x2="29" y2="43" fill="none" stroke="#544f4b" stroke-miterlimit="10" stroke-width="2"/><line x1="31" y1="43" x2="33" y2="43" fill="none" stroke="#544f4b" stroke-miterlimit="10" stroke-width="2"/><line x1="35" y1="43" x2="37" y2="43" fill="none" stroke="#544f4b" stroke-miterlimit="10" stroke-width="2"/><line x1="39" y1="43" x2="41" y2="43" fill="none" stroke="#544f4b" stroke-miterlimit="10" stroke-width="2"/><line x1="25" y1="45" x2="27" y2="45" fill="none" stroke="#544f4b" stroke-miterlimit="10" stroke-width="2"/><line x1="29" y1="45" x2="31" y2="45" fill="none" stroke="#544f4b" stroke-miterlimit="10" stroke-width="2"/><line x1="33" y1="45" x2="35" y2="45" fill="none" stroke="#544f4b" stroke-miterlimit="10" stroke-width="2"/><line x1="37" y1="45" x2="39" y2="45" fill="none" stroke="#544f4b" stroke-miterlimit="10" stroke-width="2"/><line x1="41" y1="41" x2="43" y2="41" fill="none" stroke="#544f4b" stroke-miterlimit="10" stroke-width="2"/><line x1="41" y1="45" x2="43" y2="45" fill="none" stroke="#544f4b" stroke-miterlimit="10" stroke-width="2"/><line x1="21" y1="41" x2="23" y2="41" fill="none" stroke="#544f4b" stroke-miterlimit="10" stroke-width="2"/><line x1="21" y1="45" x2="23" y2="45" fill="none" stroke="#544f4b" stroke-miterlimit="10" stroke-width="2"/><line x1="6" y1="33" x2="58" y2="33" fill="none" stroke="#544f4b" stroke-miterlimit="10" stroke-width="2"/><path d="M58,48H6V14a2,2,0,0,1,2-2H56a2,2,0,0,1,2,2Z" fill="none" stroke="#544f4b" stroke-miterlimit="10" stroke-width="2"/><polyline points="5 51 5 56 9 56 11 52" fill="none" stroke="#544f4b" stroke-miterlimit="10" stroke-width="2"/><polyline points="53 52 55 56 59 56 59 51" fill="none" stroke="#544f4b" stroke-miterlimit="10" stroke-width="2"/><line x1="18" y1="36" x2="18" y2="48" fill="none" stroke="#544f4b" stroke-miterlimit="10" stroke-width="2"/><line x1="46" y1="36" x2="46" y2="48" fill="none" stroke="#544f4b" stroke-miterlimit="10" stroke-width="2"/><line x1="54" y1="15" x2="58" y2="15" fill="none" stroke="#544f4b" stroke-miterlimit="10" stroke-width="2"/><line x1="54" y1="18" x2="58" y2="18" fill="none" stroke="#544f4b" stroke-miterlimit="10" stroke-width="2"/><line x1="54" y1="21" x2="58" y2="21" fill="none" stroke="#544f4b" stroke-miterlimit="10" stroke-width="2"/><line x1="54" y1="24" x2="58" y2="24" fill="none" stroke="#544f4b" stroke-miterlimit="10" stroke-width="2"/><line x1="54" y1="27" x2="58" y2="27" fill="none" stroke="#544f4b" stroke-miterlimit="10" stroke-width="2"/><line x1="54" y1="30" x2="58" y2="30" fill="none" stroke="#544f4b" stroke-miterlimit="10" stroke-width="2"/><line x1="6" y1="15" x2="11" y2="15" fill="none" stroke="#544f4b" stroke-miterlimit="10" stroke-width="2"/><line x1="6" y1="18" x2="11" y2="18" fill="none" stroke="#544f4b" stroke-miterlimit="10" stroke-width="2"/><line x1="6" y1="21" x2="11" y2="21" fill="none" stroke="#544f4b" stroke-miterlimit="10" stroke-width="2"/><line x1="6" y1="24" x2="11" y2="24" fill="none" stroke="#544f4b" stroke-miterlimit="10" stroke-width="2"/><line x1="6" y1="27" x2="11" y2="27" fill="none" stroke="#544f4b" stroke-miterlimit="10" stroke-width="2"/><line x1="6" y1="30" x2="11" y2="30" fill="none" stroke="#544f4b" stroke-miterlimit="10" stroke-width="2"/><line x1="52" y1="42" x2="52" y2="39" fill="none" stroke="#544f4b" stroke-miterlimit="10" stroke-width="2"/></g></svg>